{
  "accessors": [
    {
      "bufferView": 2,
      "componentType": 5126,
      "count": 65532,
      "max": [
        2.421067953109741,
        -0.2538459897041321,
        3.6971070766448975
      ],
      "min": [
        -8.09044361114502,
        -9.505864143371582,
        -8.456830024719238
      ],
      "type": "VEC3"
    },
    {
      "bufferView": 2,
      "byteOffset": 786384,
      "componentType": 5126,
      "count": 65532,
      "max": [
        0.9999305009841919,
        0.9998067617416382,
        0.9999592304229736
      ],
      "min": [
        -0.9999868869781494,
        -0.9999992251396179,
        -0.9998342394828796
      ],
      "type": "VEC3"
    },
    {
      "bufferView": 1,
      "componentType": 5126,
      "count": 65532,
      "max": [
        0.9993820190429688,
        0.9997429847717285
      ],
      "min": [
        0.00033099998836405575,
        0.0021800000686198473
      ],
      "type": "VEC2"
    },
    {
      "bufferView": 0,
      "componentType": 5125,
      "count": 316842,
      "type": "SCALAR"
    },
    {
      "bufferView": 2,
      "byteOffset": 1572768,
      "componentType": 5126,
      "count": 24301,
      "max": [
        2.418437957763672,
        -0.2724989950656891,
        3.6773719787597656
      ],
      "min": [
        -7.988570213317871,
        -9.505864143371582,
        -8.468999862670898
      ],
      "type": "VEC3"
    },
    {
      "bufferView": 2,
      "byteOffset": 1864380,
      "componentType": 5126,
      "count": 24301,
      "max": [
        0.999937117099762,
        0.9998067617416382,
        0.9999263286590576
      ],
      "min": [
        -0.9999210238456726,
        -0.9999972581863403,
        -0.9993149042129517
      ],
      "type": "VEC3"
    },
    {
      "bufferView": 1,
      "byteOffset": 524256,
      "componentType": 5126,
      "count": 24301,
      "max": [
        0.9993820190429688,
        0.9997400045394897
      ],
      "min": [
        0.00045399999362416565,
        0.0038709999062120914
      ],
      "type": "VEC2"
    },
    {
      "bufferView": 0,
      "byteOffset": 1267368,
      "componentType": 5125,
      "count": 62091,
      "type": "SCALAR"
    }
  ],
  "asset": {
    "extras": {
      "author": "artsydigitalartist (https://sketchfab.com/artsy1064)",
      "license": "CC-BY-4.0 (http://creativecommons.org/licenses/by/4.0/)",
      "source": "https://sketchfab.com/3d-models/teddy-bear-3d-scan-1e96e20ff7b0499ba785688d32a40e47",
      "title": "Teddy Bear (3D Scan)"
    },
    "generator": "Sketchfab-12.68.0",
    "version": "2.0"
  },
  "bufferViews": [
    {
      "buffer": 0,
      "byteLength": 1515732,
      "name": "floatBufferViews",
      "target": 34963
    },
    {
      "buffer": 0,
      "byteLength": 718664,
      "byteOffset": 1515732,
      "byteStride": 8,
      "name": "floatBufferViews",
      "target": 34962
    },
    {
      "buffer": 0,
      "byteLength": 2155992,
      "byteOffset": 2234396,
      "byteStride": 12,
      "name": "floatBufferViews",
      "target": 34962
    }
  ],
  "buffers": [
    {
      "byteLength": 4390388,
      "uri": "scene.bin"
    }
  ],
  "extensionsUsed": [
    "KHR_materials_unlit"
  ],
  "images": [
    {
      "uri": "textures/tedy3d_baseColor.jpeg"
    }
  ],
  "materials": [
    {
      "doubleSided": true,
      "extensions": {
        "KHR_materials_unlit": {}
      },
      "name": "tedy3d",
      "pbrMetallicRoughness": {
        "baseColorTexture": {
          "index": 0
        },
        "metallicFactor": 0.0
      }
    }
  ],
  "meshes": [
    {
      "name": "Object_0",
      "primitives": [
        {
          "attributes": {
            "NORMAL": 1,
            "POSITION": 0,
            "TEXCOORD_0": 2
          },
          "indices": 3,
          "material": 0,
          "mode": 4
        }
      ]
    },
    {
      "name": "Object_1",
      "primitives": [
        {
          "attributes": {
            "NORMAL": 5,
            "POSITION": 4,
            "TEXCOORD_0": 6
          },
          "indices": 7,
          "material": 0,
          "mode": 4
        }
      ]
    }
  ],
  "nodes": [
    {
      "children": [
        1
      ],
      "matrix": [
        0.08700384944677353,
        0.0,
        0.0,
        0.0,
        0.0,
        -0.08700384944677353,
        -3.8637470754731464e-17,
        0.0,
        0.0,
        3.8637470754731464e-17,
        -0.08700384944677353,
        0.0,
        0.0,
        -7.265811443328858,
        2.4939038753509504,
        1.0
      ],
      "name": "Sketchfab_model"
    },
    {
      "children": [
        2,
        3
      ],
      "name": "tedy3d.obj.cleaner.materialmerger.gles"
    },
    {
      "mesh": 0,
      "name": "Object_2"
    },
    {
      "mesh": 1,
      "name": "Object_3"
    }
  ],
  "samplers": [
    {
      "magFilter": 9729,
      "minFilter": 9987,
      "wrapS": 10497,
      "wrapT": 10497
    }
  ],
  "scene": 0,
  "scenes": [
    {
      "name": "Sketchfab_Scene",
      "nodes": [
        0
      ]
    }
  ],
  "textures": [
    {
      "sampler": 0,
      "source": 0
    }
  ]
}
